# xmcd CD database generated by RipIT
#
# Track frame offsets:
# 183
# 22635
# 37190
# 82170
# 93645
# 109115
# 124680
# 132973
# 151328
# 163573
#
# Disc length: 2427 seconds
#
# Revision: 0
# Processed by: cddbd v1.5.2PL0 Copyright (c) Steve Scherf et al.
# Submitted via: RipIT 3.8.0 www.suwald.com/ripit/ripit.html on 2010-12-31 at 15:02
#
DISCID=7909790a
DTITLE=ZZ Top - El Diablo CD 2
DYEAR=1980
DGENRE=
TTITLE0=Arrested For Driving While Blind
TTITLE1=Beer Drinkers And Hell Raisers
TTITLE2=La Grange
TTITLE3=She Loves My Automobile
TTITLE4=Hi-Fi Mama
TTITLE5=Dust My Broom
TTITLE6=Jailhouse Rock
TTITLE7=Tush
TTITLE8=Tube Snake Boogie
TTITLE9=Just Got Paid
EXTD=
EXTT0=
EXTT1=
EXTT2=
EXTT3=
EXTT4=
EXTT5=
EXTT6=
EXTT7=
EXTT8=
EXTT9=
PLAYORDER=
